<?xml version="1.0" encoding="utf-8"?>
<!-- Generator: Adobe Illustrator 16.0.0, SVG Export Plug-In . SVG Version: 6.00 Build 0)  -->
<!DOCTYPE svg PUBLIC "-//W3C//DTD SVG 1.1//EN" "http://www.w3.org/Graphics/SVG/1.1/DTD/svg11.dtd">
<svg version="1.1" id="Ebene_1" xmlns="http://www.w3.org/2000/svg" xmlns:xlink="http://www.w3.org/1999/xlink" x="0px" y="0px"
	 preserveAspectRatio="xMidYMid meet" viewBox="0 0 600 169" enable-background="new 0 0 600 169" xml:space="preserve">
<path fill="#0280B5" d="M0,83.872c0.278-6.074,0.42-12.157,0.9-18.217c0.753-9.653,2.232-19.192,5.624-28.33
	c2.645-7.122,6.472-13.513,11.881-18.883c5.37-5.332,11.743-9.08,18.762-11.765C43.386,4.318,49.815,2.9,56.37,1.903
	c10.748-1.642,21.57-2.064,32.428-1.844c11.152,0.232,22.256,1.108,33.15,3.751c8.534,2.068,16.537,5.296,23.572,10.664
	c7.666,5.848,12.865,13.491,16.296,22.421c2.264,5.896,3.601,12.028,4.553,18.262c1.392,8.991,1.888,18.035,1.927,27.124
	c0.04,7.22-0.127,14.438-0.816,21.624c-0.881,9.098-2.284,18.1-5.334,26.776c-5.811,16.458-17.327,26.972-33.753,32.354
	c-5.996,1.967-12.155,3.196-18.413,4.029c-8.122,1.091-16.304,1.626-24.497,1.499c-6.262-0.096-12.548-0.175-18.79-0.627
	c-9.752-0.698-19.377-2.261-28.633-5.623c-8.459-3.086-15.954-7.662-21.907-14.515c-5.219-5.997-8.626-12.973-10.91-20.535
	c-1.781-5.949-2.879-12.048-3.656-18.203C0.535,100.692,0.171,92.301,0,83.872z"/>
<path fill="#A13375" d="M215.838,83.868c0.294-6.074,0.425-12.157,0.904-18.217c0.758-9.649,2.236-19.192,5.636-28.33
	c2.645-7.118,6.476-13.514,11.893-18.883c5.362-5.328,11.743-9.08,18.767-11.761c6.194-2.363,12.643-3.781,19.194-4.781
	c10.751-1.636,21.578-2.058,32.42-1.842c11.16,0.23,22.253,1.108,33.162,3.755c8.53,2.064,16.521,5.292,23.581,10.66
	c7.646,5.852,12.849,13.495,16.275,22.421c2.276,5.9,3.604,12.032,4.561,18.266c1.384,8.991,1.892,18.035,1.928,27.124
	c0.035,7.22-0.147,14.438-0.829,21.616c-0.868,9.105-2.28,18.1-5.33,26.784c-5.813,16.458-17.326,26.972-33.753,32.354
	c-6.004,1.967-12.155,3.196-18.409,4.029c-8.13,1.091-16.303,1.618-24.5,1.499c-6.267-0.096-12.557-0.183-18.786-0.627
	c-9.768-0.698-19.389-2.269-28.638-5.623c-8.455-3.094-15.946-7.67-21.906-14.515c-5.224-6.005-8.634-12.973-10.91-20.543
	c-1.793-5.949-2.891-12.04-3.656-18.195C216.394,100.692,216.029,92.293,215.838,83.868z"/>
<path fill="#619933" d="M431.672,83.868c0.302-6.074,0.421-12.157,0.904-18.217c0.762-9.649,2.245-19.192,5.628-28.33
	c2.652-7.118,6.483-13.514,11.905-18.883c5.361-5.328,11.738-9.08,18.766-11.761c6.19-2.363,12.635-3.781,19.179-4.781
	c10.759-1.636,21.582-2.058,32.433-1.838c11.163,0.226,22.252,1.104,33.146,3.751c8.547,2.064,16.541,5.292,23.577,10.66
	c7.661,5.852,12.864,13.495,16.295,22.421c2.261,5.896,3.613,12.032,4.572,18.266c1.368,8.991,1.868,18.035,1.92,27.124
	c0.035,7.22-0.146,14.438-0.829,21.616c-0.86,9.105-2.28,18.1-5.346,26.784c-5.786,16.458-17.322,26.972-33.737,32.354
	c-6.008,1.967-12.159,3.196-18.405,4.029c-8.142,1.091-16.307,1.626-24.508,1.499c-6.271-0.096-12.556-0.183-18.79-0.627
	c-9.756-0.698-19.381-2.269-28.638-5.623c-8.446-3.094-15.934-7.67-21.895-14.515c-5.231-6.005-8.63-12.973-10.914-20.543
	c-1.797-5.949-2.887-12.04-3.656-18.195C432.22,100.692,431.847,92.293,431.672,83.868z"/>
</svg>
